# xmcd CD database file
#
# Track frame offsets:
#	150
#	19279
#	41354
#	62598
#	84778
#	102949
#	120195
#	143397
#	164271
#	186201
#	207919
#	236530
#
# Disc length: 3441 seconds
#
# Revision: 0
# Processed by: cddbd v1.5.2PL0 Copyright (c) Steve Scherf et al.
# Submitted via: CDex 1.51
#
DISCID=8b0d6f0c
DTITLE=Ray Kenndy Trio - Classic in Jazz
DYEAR=2008
DGENRE=Jazz
TTITLE0=Emperor from String Quartet No.77, 2nd Mov. (Haydn)
TTITLE1=Symphony No.9 "From the New World", 2nd Mov. (Dvorak)
TTITLE2=Toreador Song from Carmen (Bizet)
TTITLE3=Pavane pour une Infante defunte (Ravel)
TTITLE4=The Merry Peasant (Schumann)
TTITLE5=Peter and the Wolf (Prokofiev)
TTITLE6=Raindrop from 24 Preludes (Chopin)
TTITLE7=In the Hall of the Mountain King from Peer Gynt, Suite No.1 (Grieg)
TTITLE8=Moment Musical No.3 (Schubert)
TTITLE9=Liebestraum No.3 (Liszt)
TTITLE10=Hungarian Dance No.5 (Brahms)
TTITLE11=Elegie, Lieder Ohne Worte No.40 (Mendelssohn)
EXTD=YEAR: 2008
EXTT0=
EXTT1=
EXTT2=
EXTT3=
EXTT4=
EXTT5=
EXTT6=
EXTT7=
EXTT8=
EXTT9=
EXTT10=
EXTT11=
PLAYORDER=
